<svg width="216px" height="155px" viewBox="0 0 216 155" version="1.1" xmlns="http://www.w3.org/2000/svg" xmlns:xlink="http://www.w3.org/1999/xlink">
    <g id="Page-1" stroke="none" stroke-width="1" fill="none" fill-rule="evenodd">
        <g id="Desktop-HD" transform="translate(-183.000000, -391.000000)" fill="#484848" fill-rule="nonzero">
            <g id="rooms" transform="translate(0.000000, 275.000000)">
                <g id="№1" transform="translate(103.000000, 7.000000)">
                    <g id="coffee-icon" transform="translate(80.000000, 109.000000)">
                        <path d="M212.547933,148.117101 L159.855576,148.117101 C167.596438,142.616632 172.752868,134.213518 174.136088,124.84504 C193.380555,123.294182 208.237514,107.345842 208.346817,88.1212161 C208.45612,68.8965902 193.781459,52.7817769 174.55586,51.0140593 L174.55586,41.5875406 C174.55586,39.6891587 173.010316,38.1502161 171.103792,38.1502161 L164.205181,38.1502161 C158.61007,11.24284 124.823996,0.606383061 123.332703,0.152656227 C122.384704,-0.138446334 121.356751,-0.00937279936 120.511009,0.506958479 C119.665266,1.02328976 119.083491,1.87696569 118.914056,2.85026849 C117.135551,13.024749 105.903905,14.4711751 88.9666812,15.4996226 C78.2293707,16.1568391 67.1247603,16.8333045 60.2095788,22.1157848 C55.3595738,26.1440738 52.2719011,31.8917258 51.5987419,38.1447164 L44.9044928,38.1447164 C43.9865551,38.1425216 43.1055387,38.5044537 42.4561978,39.1505055 C41.8068569,39.7965572 41.4426691,40.6735217 41.4441404,41.5875406 L41.4441404,119.801797 C41.4504892,131.05325 46.9235624,141.606342 56.1333777,148.125351 L3.4520674,148.125351 C1.54554322,148.125351 0,149.664294 0,151.562676 C0,153.461057 1.54554322,155 3.4520674,155 L212.547933,155 C214.454457,155 216,153.461057 216,151.562676 C216,149.664294 214.454457,148.125351 212.547933,148.125351 L212.547933,148.117101 Z M201.429514,87.9171751 C201.403529,103.253441 189.855093,116.143416 174.55586,117.912644 L174.55586,57.9272064 C189.853004,59.6961878 201.400732,72.5830094 201.429514,87.9171751 L201.429514,87.9171751 Z M64.4183394,27.5852556 C69.6654819,23.5787101 79.6958089,22.9654914 89.4002608,22.3605223 C103.727721,21.486067 119.806071,20.5043671 124.658296,7.93475889 C132.650523,11.0998473 152.5151,20.584113 157.113253,38.1447164 L58.6437211,38.1447164 C59.2127478,34.0420613 61.2661108,30.2872839 64.4183394,27.5852556 L64.4183394,27.5852556 Z M48.3482752,119.801797 L48.3482752,45.0331147 L167.651725,45.0331147 L167.651725,119.801797 C167.633463,135.228863 155.07827,147.730437 139.585036,147.74862 L76.423249,147.74862 C60.9267798,147.734983 48.3665451,135.23208 48.3482752,119.801797 Z" id="Shape"></path>
                    </g>
                </g>
            </g>
        </g>
    </g>
</svg>
