<svg width="194px" height="174px" viewBox="0 0 194 174" version="1.1" xmlns="http://www.w3.org/2000/svg" xmlns:xlink="http://www.w3.org/1999/xlink">
    <g id="Page-1" stroke="none" stroke-width="1" fill="none" fill-rule="evenodd">
        <g id="Desktop-HD" transform="translate(-624.000000, -381.000000)" fill="#484848" fill-rule="nonzero">
            <g id="rooms" transform="translate(0.000000, 275.000000)">
                <g id="№2" transform="translate(532.000000, 7.000000)">
                    <g id="dumpling" transform="translate(92.000000, 99.000000)">
                        <path d="M193.758265,68.9552732 L193.758265,68.9232656 C193.758265,68.816573 193.758265,68.7144531 193.741482,68.6016642 L193.741482,68.5071651 C192.696343,59.4398386 188.993347,50.8831114 183.097848,43.9100034 C176.901776,18.8281534 140.126615,0 96.9921268,0 C93.1212983,0 89.1635021,0.155465818 85.1873965,0.464873764 C75.0350539,1.22391351 65.0047709,3.15352128 55.2964214,6.2125438 C46.8178268,8.83870017 38.7572876,12.6598106 31.3589243,17.5615625 C24.1878977,22.1188507 18.23442,28.3512087 14.0126687,35.7190782 C12.6196588,38.3117029 11.5638395,41.0719864 10.8711487,43.9313421 C5.0382054,50.8785388 1.36419857,59.3758234 0.300750287,68.3791346 C0.300750287,68.4309565 0.258029278,68.4721093 0.251926276,68.5269797 C0.0795165851,69.9414156 -0.00439970335,71.3649963 0.000177567212,72.7901015 C-0.00134818313,74.1237561 0.0749392365,75.4543622 0.225988618,76.7788716 L0.225988618,116.64371 C0.225988618,116.701629 0.254977972,116.747354 0.258029278,116.805273 C0.261080974,116.863192 0.235142925,116.911966 0.258029278,116.969884 C3.52923802,149.482095 45.1227185,174 96.9921268,174 C148.861536,174 190.458067,149.482095 193.758265,116.966836 C193.758265,116.908917 193.738431,116.857095 193.758265,116.802225 C193.7781,116.747354 193.790306,116.698581 193.790306,116.640662 L193.790306,76.627978 C194.080199,74.0780306 194.069518,71.5036965 193.758265,68.9552732 Z M176.643924,73.7564297 C176.485246,74.3721966 176.305207,74.9849158 176.108385,75.5900138 C175.992428,75.9451469 175.879523,76.2957077 175.752886,76.6477926 C175.51792,77.2909949 175.253965,77.9357217 174.973227,78.5606343 C174.843538,78.8578484 174.72453,79.1565871 174.585686,79.4538016 C174.14627,80.3713557 173.673288,81.2812894 173.140801,82.1759808 C169.19521,88.504362 163.810838,93.8130692 157.425572,97.6722843 C150.349142,102.119832 142.663938,105.514173 134.607976,107.751664 C125.058304,110.452505 115.230947,112.054415 105.316621,112.529958 C102.840328,112.697617 100.194677,112.778399 96.9921268,112.778399 C94.3083322,112.778399 91.664207,112.708286 89.0566993,112.571111 C88.1732902,112.52691 87.3249726,112.43241 86.4507178,112.371443 C84.7510321,112.252558 83.0421917,112.145865 81.3806493,111.972109 C80.3446651,111.862369 79.3544528,111.700806 78.3383033,111.572775 C76.8781603,111.385301 75.401234,111.217642 73.9746573,110.989015 C72.9203637,110.818307 71.9103172,110.603399 70.8789099,110.409828 C69.5393009,110.161388 68.1874863,109.929713 66.8844953,109.646216 C65.8363051,109.413017 64.8369386,109.140189 63.8116343,108.885652 C62.5788281,108.582341 61.3307641,108.292747 60.1345758,107.95438 C59.1184263,107.667835 58.1541521,107.338612 57.1669915,107.026156 C56.0211529,106.667975 54.860057,106.320463 53.7508364,105.930273 C52.7835108,105.588858 51.8573803,105.206289 50.9129407,104.842011 C49.8601732,104.432008 48.7890962,104.035722 47.7744724,103.598283 C46.8544448,103.201997 45.9893447,102.769131 45.1028834,102.349983 C44.1355579,101.892729 43.1483973,101.444621 42.2192155,100.961458 C41.3678466,100.517922 40.5714051,100.043903 39.7551286,99.5790293 C38.8686677,99.0730027 37.9684748,98.5745969 37.1232093,98.0426593 C36.3450764,97.5564469 35.6264483,97.0397509 34.8910365,96.5352488 C34.0839146,95.9804485 33.2783184,95.4363175 32.5139176,94.8586545 C31.8166494,94.3312892 31.178886,93.7764889 30.5197618,93.2293098 C29.8102876,92.6318326 29.0916595,92.0435003 28.4264323,91.4277329 C27.8146065,90.8607392 27.259233,90.2678346 26.6886026,89.6810267 C26.1179722,89.0942184 25.4496933,88.4144359 24.8882172,87.7483704 C24.3267411,87.0807813 23.9010566,86.5198843 23.4234969,85.8980202 C22.9077934,85.224334 22.3890379,84.5536963 21.9236842,83.8617203 C21.4979997,83.2169935 21.130294,82.5722671 20.7503823,81.9290644 C20.3369038,81.2157497 19.9280027,80.5070077 19.5694513,79.7830237 C19.2475183,79.1154342 18.9759345,78.4356516 18.6982481,77.7558691 C18.3961494,77.015119 18.0986284,76.2697968 17.8575596,75.5000877 C17.6348002,74.8065872 17.4669675,74.1008934 17.2991348,73.3951995 C17.1892808,72.9516644 17.1023131,72.5005082 17.0153454,72.0493519 L17.0565408,72.1011737 C17.4089888,72.6072003 17.7660146,73.1223722 18.1154113,73.544569 C18.5822911,74.1588123 19.0812112,74.7486683 19.609121,75.3126139 C21.2904977,77.2605114 23.1122438,79.0803784 25.0621525,80.7584967 C25.5625986,81.1898388 26.0920341,81.6409951 26.6214696,82.022039 C27.2119351,82.5463558 27.8329152,83.0371409 28.4813594,83.4913453 C29.2045648,84.0674842 29.9231933,84.5735109 30.5884205,85.0124737 C31.3101003,85.5276452 32.0363575,86.0108095 32.7778723,86.4848281 C33.3652861,86.8643484 33.9176079,87.2057639 34.4272083,87.5060266 C35.6172936,88.2498248 36.8363682,88.9296074 38.0752775,89.6002451 C39.4164118,90.3379465 40.7941644,91.0405919 42.2192155,91.7203748 C43.3482707,92.2523123 44.477326,92.7522423 45.6414732,93.2445514 C46.4867391,93.6118779 47.3411593,93.9090924 48.1925278,94.250508 C48.8379203,94.5111423 49.5000961,94.7748247 50.1668489,95.0263138 C50.9190437,95.3128589 51.6666616,95.6451296 52.4249594,95.9133847 C54.9866943,96.7897864 57.3317725,97.5244393 59.6463357,98.167642 L64.4661811,99.4281358 C64.5623035,99.4540467 64.6599515,99.4738612 64.7560735,99.4891028 C66.3886266,99.8701472 68.0562716,100.220708 69.917687,100.56822 C71.2420383,100.819709 72.570967,101.071198 73.9365136,101.296776 C74.4552687,101.380606 74.9938585,101.449194 75.517191,101.525403 L75.6911263,101.551314 C76.5363922,101.673248 77.3679261,101.802803 78.2452326,101.921689 C79.1225388,102.042099 79.9037229,102.109162 80.7291542,102.199089 C81.0510872,102.234145 81.3745467,102.273774 81.6964797,102.305781 C83.5411118,102.496304 85.3476002,102.663963 87.1052646,102.776752 C90.2406816,102.997758 93.4920557,103.098353 97.0440025,103.098353 C99.1083426,103.098353 101.168106,103.055676 103.223292,102.968798 C109.336973,102.717309 115.426243,102.077155 121.457534,101.055956 L121.535347,101.03919 C122.476735,100.877628 123.4227,100.717589 124.351882,100.524019 C125.073562,100.379222 125.77083,100.200893 126.483356,100.05 C127.693275,99.7954622 128.898618,99.5348283 130.085652,99.2482831 C130.447255,99.1644533 130.818012,99.0958655 131.179615,99.0059389 L131.243697,99.0059389 L131.330664,98.9830762 L131.934861,98.8291345 C132.618398,98.6553785 133.286676,98.4846707 133.921389,98.2971969 C134.311981,98.1905044 134.685789,98.0746669 135.076381,97.9755956 C135.466974,97.8750001 135.852988,97.7561141 136.240529,97.6524701 C136.547205,97.5625436 136.885921,97.4787138 137.175814,97.3857391 C138.730554,96.9117205 140.311231,96.3767344 141.89496,95.8127889 C142.453384,95.6161702 142.998077,95.4043095 143.548873,95.1970215 C144.101195,94.9912576 144.743536,94.768728 145.337052,94.5522947 C146.533241,94.088945 147.726378,93.585967 148.907308,93.0875611 C156.821375,89.7877189 164.114462,85.1679395 170.476841,79.4248421 C171.750842,78.255799 172.940928,77.0562719 174.044045,75.8247372 C174.594841,75.2135421 175.060195,74.5718639 175.569796,73.9439031 C176.079396,73.3159423 176.608831,72.7260859 177.066557,72.0935529 C177.026887,72.2932201 177.000949,72.4974596 176.956703,72.6971268 C176.823962,73.0248249 176.736995,73.3891028 176.643924,73.7533811 L176.643924,73.7564297 Z M20.2758738,60.3711106 C20.6405282,59.7279079 21.050955,59.1243344 21.4629078,58.5055185 C21.7238112,58.1122811 21.9694569,57.7159948 22.2501949,57.3303782 L22.305122,57.2617904 C22.6972397,59.4657499 23.3075398,61.6255081 24.1299194,63.706009 C27.2043064,70.8848806 33.6033032,76.1051857 41.2579925,77.6811841 C45.2951282,78.6078835 49.4299114,79.0331288 53.570798,78.947775 L56.7382557,78.947775 C58.7507201,78.947775 60.812009,78.947775 62.8855038,78.8349857 C62.8137934,79.3699718 62.7146197,79.8988611 62.6795274,80.4460406 C62.4338817,84.6299053 63.0273985,88.8213907 64.4234601,92.7735809 L61.9273326,92.1303782 L60.8593073,91.8270674 C58.8178536,91.2433076 56.8465837,90.618395 54.9531276,89.9767168 L54.3306215,89.7679047 C52.3028994,89.0393481 50.2355076,88.2284861 48.1711675,87.3414156 C47.0772046,86.8750173 46.0122306,86.407095 44.9640404,85.9102136 C43.6747811,85.2929222 42.4007798,84.6451473 41.1450872,83.9577435 C40.0129803,83.3465484 38.9098631,82.7338296 37.7609728,82.0250876 C37.2513723,81.7248245 36.7753382,81.4260863 36.2459028,81.0877189 C35.6005103,80.6655221 34.9551182,80.2494216 34.233438,79.7342501 C33.9938952,79.5757357 33.7558782,79.4111246 33.5132838,79.2373683 C33.2722154,79.0636124 33.0616617,78.9157673 32.8358506,78.7389629 C32.6680183,78.6124561 32.5139176,78.5057635 32.3293015,78.3609671 C31.7815574,77.9768746 31.258225,77.5607744 30.7593045,77.1141904 C30.6555535,77.0242643 30.5487512,76.9404345 30.4358454,76.8627014 C30.2146117,76.7118078 29.9811716,76.4984231 29.755361,76.3094252 C29.4334276,76.0472668 29.1435348,75.7896811 28.8460134,75.5259986 C28.1624772,74.916328 27.5079304,74.3081814 26.8915273,73.7015589 C26.6535102,73.4637878 26.4276992,73.2214436 26.1942595,72.983672 C25.5717533,72.3389452 24.9629789,71.6942184 24.4076057,71.049492 C24.3236898,70.9626137 24.253505,70.8604938 24.1756917,70.7736158 C23.5760719,70.0648738 22.9856064,69.3515591 22.4500679,68.624527 C22.299019,68.4141904 22.1464439,68.2023298 21.9755599,67.9477926 C21.9282615,67.8822529 21.8824892,67.8090924 21.8367165,67.7405046 C21.2660857,66.9220214 20.7213929,66.0943938 20.2239985,65.2499998 C20.1660198,65.1570251 20.0988868,65.050333 20.0470114,64.9573579 C19.6564194,64.2638575 19.3436406,63.5520673 19.0156042,62.8463734 C19.1986943,62.4500875 19.3833099,62.0538016 19.5892863,61.6605642 C19.7952627,61.2673265 20.0348054,60.7902593 20.2758738,60.3711106 Z M172.49846,58.5161878 C172.918041,59.1411 173.33152,59.7690608 173.702277,60.4046427 C173.946397,60.8268395 174.163054,61.255133 174.385813,61.6925718 C174.608573,62.1315347 174.768776,62.4622809 174.950341,62.8494216 C174.753519,63.2716188 174.553646,63.6968641 174.333938,64.1160124 C174.11423,64.5351611 173.876213,65.0091801 173.618361,65.4466185 C173.23082,66.1111599 172.79293,66.7650315 172.347411,67.4189032 C172.072776,67.8212858 171.817975,68.2282411 171.52198,68.624527 C170.995596,69.3363172 170.405131,70.0343902 169.808562,70.7278907 C169.533927,71.049492 169.286755,71.3726171 168.995337,71.6942184 C168.079887,72.7032235 167.09883,73.6924141 166.041484,74.6617904 C160.21617,79.9110546 153.537961,84.1299754 146.295224,87.1386998 L146.203679,87.1768045 C144.590961,87.8764016 142.926367,88.521128 141.240413,89.1460406 C140.710977,89.3457075 140.178491,89.5484233 139.650581,89.7358967 C137.908174,90.35014 136.132201,90.927803 134.321135,91.4688858 C133.967161,91.5725298 133.599455,91.6792219 133.234801,91.7920112 C132.047767,92.1136122 130.824115,92.4352135 129.608092,92.7354762 C131.175038,88.2787843 131.68769,83.5203047 131.104853,78.8319375 C132.169827,78.8837593 133.234801,78.9188155 134.289094,78.9188155 C135.785855,78.9188155 137.268885,78.8837593 138.736656,78.8441309 L142.424395,78.7801157 C144.796937,78.8212682 147.169478,78.6795199 149.52066,78.3579185 C154.302361,77.7025228 158.846046,75.8704623 162.744338,73.0278731 C165.93163,70.6486335 168.389614,67.4249999 169.840603,63.7227751 C170.658405,61.6544671 171.26718,59.5099509 171.660823,57.3197093 L171.718802,57.3913453 C172.005643,57.752575 172.24366,58.1351435 172.49846,58.5161878 L172.49846,58.5161878 Z M90.6999328,96.5184827 C89.6120725,96.4697091 88.5226869,96.4255081 87.4729707,96.3508235 L87.3158183,96.3447264 C85.5001756,96.21822 83.7028415,96.0505604 81.9222907,95.8615625 L80.6513408,95.7198142 C78.8952021,95.5155743 77.1558467,95.2793273 75.4363259,95.0141203 L75.1128672,94.9683952 C74.1455413,94.8144535 73.2133078,94.620883 72.2627652,94.4471266 C71.7607934,93.6728449 71.3290064,92.8574104 70.9719806,92.00692 C69.5316723,88.4799752 68.9000118,84.6741063 69.1242968,80.8712856 C69.2310996,79.2495617 69.5393009,77.6476524 70.0427987,76.1021372 C71.379356,71.0190081 74.6108951,66.6385248 79.0737147,63.8584267 C79.4749872,63.6587594 79.874734,63.4560441 80.106648,63.3142957 C82.941492,61.8251749 86.0418167,59.9915907 88.7835903,58.1869657 C91.0218658,56.7725298 93.18538,55.2864575 95.023909,53.8857391 C96.1834793,53.0093375 97.7839913,53.0093375 98.9435616,53.8857391 C100.775988,55.2773123 102.913564,56.749667 105.072501,58.1259986 L105.119799,58.1580062 L105.145737,58.1580062 C106.866783,59.2798002 108.615293,60.3695865 110.394318,61.4288894 C111.981098,62.317484 113.503797,63.1466361 114.873921,63.8447092 C117.994081,65.699632 120.519198,68.4065696 122.15175,71.6469693 C122.92378,73.07055 123.531028,74.5764365 123.964342,76.1387174 C125.497721,81.3635948 125.169685,86.9588471 123.03516,91.9688157 C122.678134,92.8238787 122.246347,93.646934 121.744375,94.4273124 C121.260712,94.517239 120.796884,94.6300278 120.307118,94.7138576 C112.603604,96.0185528 104.805495,96.6724245 96.9921268,96.6663278 C94.791995,96.6663278 92.7246032,96.6053607 90.6999328,96.5184827 L90.6999328,96.5184827 Z M165.647841,49.5387875 C166.023176,53.5519447 165.409824,57.5971092 163.861187,61.3191487 C162.838935,63.9270145 161.108734,66.1995619 158.864355,67.8792047 C155.802174,70.0770672 152.242599,71.4838823 148.50451,71.9746669 C146.472211,72.2444465 144.424654,72.3572354 142.375571,72.3160825 L138.579504,72.3846703 C135.532581,72.5111771 132.48108,72.4608794 129.441786,72.2322531 C128.990163,70.9839523 128.451573,69.7676592 127.829067,68.5955675 C125.586214,64.1937455 122.102926,60.5448666 117.809465,58.0970391 C116.520206,57.4370708 115.07532,56.6536438 113.636538,55.8412578 C112.43272,55.1233705 111.20144,54.3368954 109.971685,53.556517 C109.384271,45.9981251 112.624965,38.6485458 118.602855,33.9784687 C119.02091,33.6660126 119.46643,33.3916608 119.931783,33.1569374 C121.222568,32.4893483 122.670505,31.7226874 124.173369,30.8569551 C128.195247,28.5249647 132.084385,25.9750173 135.823999,23.2162579 C136.99425,22.3490015 138.593236,22.3398562 139.772641,23.1933951 C144.81372,26.9382969 150.146218,30.2731953 155.719783,33.1660827 C161.394049,36.7875263 165.063479,42.8369831 165.647841,49.5387875 L165.647841,49.5387875 Z M103.60778,49.2812017 C103.356032,49.0937279 103.072242,48.9032059 102.831173,48.7203047 C99.3738234,46.1017695 94.5951733,46.1017695 91.1378228,48.7203047 C90.9089605,48.8940611 90.6312737,49.0815345 90.3932566,49.258339 C89.7356585,41.8493167 86.2920397,34.9661352 80.7550918,29.9927468 C90.7426534,28.8282759 100.824812,28.713963 110.836786,29.6482831 C111.665268,29.7321125 112.513585,29.8509985 113.352748,29.951594 C107.728832,34.8960232 104.237915,41.8234057 103.60778,49.2812017 Z M69.7971526,30.8569551 C71.3015427,31.7226874 72.735748,32.4893483 74.067728,33.1691308 C80.8969865,37.6121057 84.7144141,45.4570427 83.9927339,53.5671863 C81.7361494,55.0136298 79.3163091,56.4372109 76.9422416,57.6870357 C76.6965959,57.8364049 76.4494241,57.958339 76.1869955,58.0878943 C70.7705816,61.2688505 66.6571586,66.2651016 64.5760352,72.1880517 C61.9746309,72.4258232 59.364072,72.5340398 56.753513,72.509653 L54.3886002,72.509653 C50.5116683,72.6361598 46.6332111,72.2764541 42.8447729,71.4396812 C37.2300116,70.2904519 32.5017116,66.5303081 30.1230667,61.3191487 C28.57443,57.5971092 27.9610786,53.5519447 28.336413,49.5387875 C28.9177238,42.8385072 32.5825763,36.7875263 38.2553159,33.1660827 C43.8151501,30.2777679 49.1354417,26.9520144 54.1673665,23.219306 C55.3452454,22.3520497 56.9503351,22.3520497 58.128214,23.219306 C61.8754569,25.9765414 65.7706978,28.5264891 69.7971526,30.8569551 Z M34.9612208,22.8977051 C41.854561,18.3404169 49.3627784,14.7890856 57.2600622,12.3473545 C66.4908519,9.43770147 76.0283174,7.5995443 85.6802139,6.86946362 C131.280315,3.34861588 171.537237,21.4024875 176.997898,46.0971969 C177.422056,47.88658 177.634136,49.7186405 177.631084,51.5552732 C177.629558,52.4453923 177.579209,53.3339874 177.481561,54.2180098 L177.481561,54.2911703 L177.423582,54.2180098 C176.817859,53.3477049 176.134323,52.5033112 175.437055,51.639103 C175.156317,51.2915907 174.912197,50.9334092 174.617727,50.5889454 C173.766358,49.6028031 172.834125,48.6562891 171.875954,47.6884373 C170.772837,39.2704099 165.908744,31.8065172 158.652276,27.3894532 C153.417426,24.6581287 148.406862,21.5198494 143.666356,18.0035739 C140.204428,15.4429573 135.473077,15.449054 132.018778,18.0188155 C128.775032,20.4056762 125.413805,22.6279255 121.948825,24.6764189 C118.445703,24.0667482 114.936477,23.5683428 111.491332,23.2254027 C99.7125398,22.0975121 87.8422021,22.362719 76.1259655,24.019499 C74.7558415,24.2222144 73.4162329,24.4401714 72.0842525,24.6627014 C68.6055417,22.6279255 65.230582,20.4193937 61.9731049,18.0447268 C58.5050744,15.4825856 53.7676197,15.4917309 50.3087436,18.0675892 C45.5758662,21.5686231 40.575982,24.6931849 35.3518129,27.412316 C28.0968703,31.830904 23.2343038,39.2947967 22.1281349,47.7113 C21.1959014,48.6273301 20.2819768,49.5479327 19.4534947,50.5020671 C19.1117266,50.8922563 18.8309885,51.3007356 18.5090551,51.7000701 C17.8636626,52.5094076 17.1831781,53.3126487 16.5988157,54.1463734 C16.572878,54.1844777 16.540837,54.2180098 16.5148993,54.2561141 L16.5148993,54.1844777 C16.4142,53.3126487 16.3607986,52.434723 16.35317,51.5552732 C16.3501183,49.6912051 16.5667746,47.8332342 16.9985621,46.0194638 C17.5554608,43.4801858 18.4678597,41.032358 19.7082947,38.7476172 C23.4402802,32.3094952 28.678181,26.8697091 34.9749528,22.8977051 L34.9612208,22.8977051 Z M9.90229711,57.4721265 L9.90229711,66.0562891 C9.8961945,67.5103538 9.99384252,68.9644185 10.1937155,70.4062893 C10.1921899,70.5419409 10.1998185,70.679117 10.2181275,70.8147686 C13.8539907,99.3153469 49.5351881,119.222617 96.9921268,119.222617 C100.350304,119.222617 103.121066,119.138787 105.746882,118.957411 C116.125037,118.451384 126.411645,116.767169 136.408361,113.938297 C145.063943,111.528574 153.321304,107.873599 160.922592,103.084636 C168.154649,98.6889102 174.243918,92.6470742 178.694532,85.4529607 C181.411894,80.9337772 183.151249,75.8963732 183.801218,70.6638751 C183.801218,70.5952872 183.801218,70.5053607 183.816476,70.4154346 C183.988886,68.9689907 184.07738,67.5134023 184.081956,66.0562891 L184.081956,57.4721265 C185.790797,61.1392956 186.880183,65.0640505 187.307393,69.0878767 L187.322651,76.3536266 C186.800844,81.4215137 185.232372,86.3247897 182.713359,90.754047 C182.650803,90.8637878 182.595876,90.9781007 182.550104,91.0954626 C182.481444,91.2067274 182.423466,91.3210404 182.37159,91.4399263 C178.668595,97.6600909 173.795348,103.105974 168.021909,107.477312 C161.674787,112.369919 154.688376,116.372407 147.256446,119.373511 C131.289469,125.811633 114.21022,129.044411 96.9921268,128.888945 C58.7690295,128.888945 24.5174598,113.854467 11.6218178,91.4536438 C11.5806229,91.3591451 11.5348502,91.2692185 11.4829749,91.179292 C8.89377623,86.7225997 7.25664621,81.7781708 6.67686108,76.6569374 L6.67686108,69.246391 C7.08576217,65.1692185 8.17667376,61.1880693 9.90229711,57.4721265 Z M96.9921268,167.555781 C48.5098838,167.555781 9.71920707,145.5863 6.67686108,116.43185 L6.67686108,95.6512263 C21.1043563,119.431429 57.0983328,135.333164 96.9921268,135.333164 C115.061588,135.487106 132.984578,132.086668 149.738842,125.32542 C157.706311,122.098739 165.194693,117.799037 171.994962,112.5452 C178.085758,107.88884 183.274835,102.160984 187.307393,95.6420811 L187.307393,116.43185 C184.268098,145.5863 145.475896,167.555781 96.9921268,167.555781 L96.9921268,167.555781 Z" id="Shape"></path>
                        <path d="M95.6887532,61.1717105 C93.9095308,60.5905445 91.9840492,61.5323799 91.3909748,63.2758785 C90.7673635,65.2697979 89.4879945,67.0054217 87.7521679,68.2102783 C87.1510578,68.4339247 86.4760141,68.3599011 85.940801,68.0102562 C84.8526949,67.4684645 83.5524319,67.5377634 82.53183,68.1945283 C81.5128357,68.8512936 80.9310126,69.9931511 81.0065529,71.1869832 C81.0837007,72.3792399 81.806962,73.4407735 82.9031042,73.9668157 C84.2097962,74.6298805 85.6579255,74.98425 87.1301637,75 C88.2359495,74.9984247 89.3304845,74.7826531 90.3510864,74.3637097 C93.9223888,72.4123143 96.5968476,69.1962135 97.8263917,65.3737465 C98.4146439,63.634973 97.459939,61.7576016 95.6887532,61.1717105 Z" id="Path"></path>
                        <path d="M136.685944,30.1717367 C134.90456,29.5904393 132.976738,30.5324876 132.382943,32.2779557 C131.756964,34.2707504 130.476041,36.0067659 128.739714,37.2134703 C128.137873,37.4387425 127.462009,37.3647022 126.926145,37.0134031 C125.244531,36.1895044 123.200847,36.8558699 122.360844,38.5020916 C121.519233,40.146738 122.199925,42.1474097 123.881539,42.971308 C125.191427,43.6329478 126.641317,43.9858221 128.116954,44 C129.224083,44 130.319949,43.7841796 131.341791,43.3667164 C134.920652,41.4196062 137.59997,38.1996279 138.826181,34.3747221 C139.415148,32.6371309 138.459283,30.7593353 136.685944,30.1717367 L136.685944,30.1717367 Z" id="Path"></path>
                        <path d="M54.6885691,30.1717367 C52.9068665,29.5904393 50.9786999,30.5324876 50.384799,32.2779557 C49.7587083,34.2707504 48.4759467,36.0067659 46.7376999,37.2134703 C46.1357512,37.4387425 45.4613757,37.3647022 44.9270258,37.0134031 C43.2451111,36.1895044 41.2010619,36.8558699 40.360909,38.5020916 C39.5191468,40.146738 40.1999602,42.1474097 41.8818749,42.971308 C43.1903884,43.6329478 44.6405372,43.9842465 46.114828,44 C47.2221556,44 48.3182167,43.7841796 49.3402415,43.3667164 C52.918133,41.4164557 55.5963207,38.1996279 56.8259689,34.3747221 C57.4150417,32.6371309 56.4606155,30.760911 54.6885691,30.1717367 Z" id="Path"></path>
                        <path d="M60.7925914,148.704096 C53.6919893,148.704096 44.7843748,145.197271 35.0362191,138.561853 C33.5812024,137.570114 31.5815031,137.926008 30.5725497,139.355542 C29.5620796,140.783586 29.9246956,142.746217 31.3797122,143.736467 C42.3628874,151.223649 52.2582135,155 60.7925914,155 C62.5647075,155 64,153.591314 64,151.852048 C64,150.114271 62.5647075,148.704096 60.7925914,148.704096 L60.7925914,148.704096 Z" id="Path"></path>
                        <path d="M21.6760896,125.99906 C20.3769901,124.666711 18.2710649,124.666711 16.9735384,126.000675 C15.6744392,127.334639 15.6760119,129.497082 16.9751111,130.831046 C16.9751111,130.831046 18.3040932,132.195695 20.5893127,134.24509 C21.9749137,135.391717 23.994337,135.212456 25.1707611,133.841348 C26.3471853,132.468624 26.2622564,130.388545 24.9773116,129.122409 C22.9169968,127.27004 21.7169812,126.026514 21.6760896,125.99906 L21.6760896,125.99906 Z" id="Path"></path>
                    </g>
                </g>
            </g>
        </g>
    </g>
</svg>
